# xmcd
#
# Track frame offsets: 
#        150
#        14249
#        28312
#        41350
#        53916
#        69003
#        82889
#        95718
#        109548
#        122187
#        134534
#        147584
#        161882
#        175104
#        187568
#        200790
#        215337
#        228248
#        241216
#        254847
#        268047
#        280806
#        294169
#        306646
#        319241
#
# Disc length: 4428 seconds
#
# Revision: 0
# Processed by: cddbd v1.5.2PL0 Copyright (c) Steve Scherf et al.
# Submitted via: ExactAudioCopy v1.0b1
#
DISCID=7b114a19
DTITLE=Various Artist - History Of Rhythm And Blues 1942-52 [CD1]
DYEAR=2018
DGENRE=R&B
TTITLE0=Lucky Millinder - Little John Special (1942)
TTITLE1=Ella and Buddy Johnson - That's The Stuff You Gotta Watch (1944)
TTITLE2=Dinah Washington - Evil Gal Blues (1943)
TTITLE3=Cecil Grant - I Wonder (1944)
TTITLE4=Charles Brown - Driftin' Blues (1945)
TTITLE5=T-Bone Walker - T-Bone Boogie (1944)
TTITLE6=Five Red Caps - Boogie Woogie On A Saturday Night (1944)
TTITLE7=Four Blues - Blues Can Jump (1945)
TTITLE8=Helen Humes - Be-Baba-Leba (1945)
TTITLE9=Louis Jordan - Caldonia Boogie (1945)
TTITLE10=Roy Milton - Milton's Boogie (1945)
TTITLE11=Joe Liggins - Honeydripper (1945)
TTITLE12=Wynonie Harris - Who Threw The Whiskey In The Well (1945)
TTITLE13=Sister Rosetta Tharpe - Strange Things Happening Every Day (1
TTITLE13=945)
TTITLE14=Rubberlegs Williams - That's The Blues (1946)
TTITLE15=Big Joe Turner - My Gal's A Jockey (1946)
TTITLE16=Ella Mae Morse - House Of Blue Lights (1945)
TTITLE17=Louis Jordan - Ain't That Just Like A Woman (1946)
TTITLE18=Nellie Lutcher - He's A Real Gone Guy (1947)
TTITLE19=Julia Lee - Snatch And Grab It (1947)
TTITLE20=Amos Milburn - Chicken Shack Boogie (1948)
TTITLE21=Nat King Cole Trio - Get Your Kicks On Route 66 (1946)
TTITLE22=Walter Davis - Please Remember Me (1946)
TTITLE23=Henry 'Red' Allen - Get The Mop (1946)
TTITLE24=Three Bips and A Bop - Ooh Pa Pa Dah (1947)
EXTD=
EXTT0=
EXTT1=
EXTT2=
EXTT3=
EXTT4=
EXTT5=
EXTT6=
EXTT7=
EXTT8=
EXTT9=
EXTT10=
EXTT11=
EXTT12=
EXTT13=
EXTT14=
EXTT15=
EXTT16=
EXTT17=
EXTT18=
EXTT19=
EXTT20=
EXTT21=
EXTT22=
EXTT23=
EXTT24=
PLAYORDER=
